<svg class="sc-659e94ee-2 cCYcWV" id="icon-apps" version="1.1" xmlns="http://www.w3.org/2000/svg" xmlns:xlink="http://www.w3.org/1999/xlink" viewBox="0 0 224.729 224.729" width="224.729"  height="224.729" ><title>apps</title><path class="path1" d="M164.112,224.729H0.364v-57.27c6.506,6.84,15.69,11.11,25.877,11.11 c19.725,0,35.713-15.99,35.713-35.714c0-19.725-15.988-35.715-35.713-35.715c-10.187,0-19.371,4.271-25.877,11.113V60.98h56.634 c-6.471-6.464-10.474-15.398-10.474-25.268C46.525,15.99,62.513,0,82.239,0c19.723,0,35.715,15.99,35.715,35.713 c0,9.87-4.004,18.804-10.475,25.268h56.633v55.938c6.4-6.057,15.033-9.778,24.539-9.778c19.725,0,35.713,15.99,35.713,35.715 c0,19.724-15.988,35.714-35.713,35.714c-9.506,0-18.139-3.722-24.539-9.778V224.729z" fill="#C1C3C6"></path></svg>