<svg class="sc-659e94ee-2 cCYcWV" id="icon-locked" version="1.1" xmlns="http://www.w3.org/2000/svg" xmlns:xlink="http://www.w3.org/1999/xlink" viewBox="0 0 1024 1024" width="1024"  height="1024" ><title>locked</title><path class="path1" d="M762.328 378.139q0-49.41-19.411-94.787t-51.931-78.149-77.392-52.183-94.283-19.411h-22.184q-28.234 0-55.46 6.302t-51.175 18.403-45.125 28.739-37.814 37.814-28.739 45.125-18.403 51.175-6.302 55.46v74.619q-26.722 3.529-45.125 23.949t-18.403 47.645v298.478q0 19.663 9.832 36.553t26.722 26.722 36.553 9.832h489.060q19.663 0 36.553-9.832t26.722-26.722 9.832-36.553v-296.965q0-18.151-8.571-33.78t-23.193-25.461-31.764-12.353v-74.619zM519.311 197.136q36.301 0 69.578 14.369t57.225 38.318 38.318 57.225 14.369 69.578v74.619h-381.164v-74.619q0-36.301 14.369-69.578t38.318-57.225 57.225-38.318 69.578-14.369h22.184z" fill="#C1C3C6"></path></svg>