<svg class="sc-659e94ee-2 cCYcWV" id="icon-notifications" version="1.1" xmlns="http://www.w3.org/2000/svg" xmlns:xlink="http://www.w3.org/1999/xlink" viewBox="0 0 1024 1024" width="1024"  height="1024" ><title>notifications</title><path class="path1" d="M508.219 1022.992q35.797 0 65.544-18.403t46.385-49.158q-27.226 2.017-55.208 3.025t-56.721 1.008q-56.973 0-111.929-4.033 16.638 30.755 46.385 49.158t65.544 18.403zM828.88 406.877q-3.025-33.78-14.117-66.3t-28.991-60.754-41.343-52.435-51.679-43.108-59.494-30.503q1.008-6.554 1.513-11.092t0.504-9.075q0-52.435-37.31-89.745t-89.745-37.31-89.745 37.31-37.31 89.745q0 7.059 2.017 20.167-79.661 30.755-133.861 99.577t-61.763 153.524l-25.209 282.344q-23.193 8.067-41.343 17.394t-31.007 19.159-19.663 20.924-6.806 22.184q0 34.285 59.494 63.779t161.843 46.385 223.354 16.89 223.354-16.89 161.843-46.385 59.494-63.779q0-15.126-11.848-29.243t-33.78-26.722-53.192-23.697l-25.209-282.344zM508.219 53.948q32.772 0 56.217 23.445t23.445 56.217q0 1.008-0.504 2.017t-0.756 2.017-0.252 1.513q-28.234-5.546-56.469-5.546h-43.36q-28.234 0-56.469 6.050 0-1.008-0.756-3.025t-0.756-3.025q0-16.134 6.302-30.755t17.142-25.461 25.461-17.142 30.755-6.302z" fill="#C1C3C6"></path></svg>