<svg class="sc-659e94ee-2 cCYcWV" id="icon-redeem" version="1.1" xmlns="http://www.w3.org/2000/svg" xmlns:xlink="http://www.w3.org/1999/xlink" viewBox="0 0 1024 1024" width="1024"  height="1024" ><title>redeem</title><path class="path1" d="M254.109 70.082q-26.218 0-44.872 18.655t-18.655 44.872v762.328q0 26.218 18.655 44.872t44.872 18.655h508.219q26.218 0 44.872-18.655t18.655-44.872v-762.328q0-26.218-18.655-44.872t-44.872-18.655h-508.219zM444.691 197.136v-63.527h127.055v63.527h127.055v63.527h-381.164v-63.527h127.055zM698.801 895.937h-381.164q-26.218 0-44.872-18.655t-18.655-44.872v-254.109q0-26.218 18.655-44.872t44.872-18.655h381.164q26.218 0 44.872 18.655t18.655 44.872v254.109q0 26.218-18.655 44.872t-44.872 18.655z" fill="#C1C3C6"></path></svg>