<svg class="sc-659e94ee-2 cCYcWV" id="icon-refresh" version="1.1" xmlns="http://www.w3.org/2000/svg" xmlns:xlink="http://www.w3.org/1999/xlink" viewBox="0 0 1024 1024" width="1024"  height="1024" ><title>refresh</title><path class="path1" d="M872.744 514.773v-0.504q0-74.115-28.739-141.676t-77.897-116.719-116.719-78.149-141.676-28.991q-123.525 0-221.841 75.124-90.249 69.578-125.542 177.473-17.646 54.956-18.151 112.937 0 74.115 28.991 141.676t78.149 116.719 116.719 77.897 141.676 28.739q37.814 0 74.367-7.311t70.838-22.436q18.151-8.067 25.461-26.47t-0.756-36.049q-3.529-9.075-10.588-15.63t-15.378-9.832-17.899-3.277-18.655 4.033q-51.427 21.68-107.391 21.68-54.956 0-104.871-21.176t-85.964-57.477-57.477-86.216-21.428-104.871q0-36.806 9.58-71.594t26.974-64.536 42.352-54.704 54.704-42.352 64.536-27.226 71.594-9.832q54.956 0 104.871 21.428t86.216 57.729 57.729 86.468 21.428 105.123h-104.366q-16.134 0-19.411 7.815t7.815 18.907l136.634 136.634q11.092 11.092 26.974 11.092t26.974-11.092l136.634-136.634q7.563-7.059 8.571-13.361t-4.033-9.832-15.63-3.529h-105.375z" fill="#C1C3C6"></path></svg>